<svg width="50" height="50" viewBox="0 0 50 50" fill="none" xmlns="http://www.w3.org/2000/svg">
<path fill-rule="evenodd" clip-rule="evenodd" d="M25 12.9808C22.1678 12.9808 19.8718 15.2767 19.8718 18.109C19.8718 20.9412 22.1678 23.2372 25 23.2372C27.8322 23.2372 30.1282 20.9412 30.1282 18.109C30.1282 15.2767 27.8322 12.9808 25 12.9808ZM16.0256 18.109C16.0256 13.1526 20.0436 9.13462 25 9.13462C29.9564 9.13462 33.9744 13.1526 33.9744 18.109C33.9744 23.0654 29.9564 27.0833 25 27.0833C20.0436 27.0833 16.0256 23.0654 16.0256 18.109ZM11.6029 32.917C13.2859 31.234 15.5686 30.2885 17.9487 30.2885H32.0513C34.4314 30.2885 36.7141 31.234 38.3971 32.917C40.0801 34.6 41.0256 36.8827 41.0256 39.2628V42.7885C41.0256 43.8505 40.1647 44.7115 39.1026 44.7115C38.0405 44.7115 37.1795 43.8505 37.1795 42.7885V39.2628C37.1795 37.9027 36.6392 36.5984 35.6775 35.6366C34.7157 34.6749 33.4114 34.1346 32.0513 34.1346H17.9487C16.5886 34.1346 15.2843 34.6749 14.3225 35.6366C13.3608 36.5984 12.8205 37.9027 12.8205 39.2628V42.7885C12.8205 43.8505 11.9595 44.7115 10.8974 44.7115C9.83535 44.7115 8.97436 43.8505 8.97436 42.7885V39.2628C8.97436 36.8827 9.91987 34.6 11.6029 32.917Z" fill="white"/>
<path fill-rule="evenodd" clip-rule="evenodd" d="M25 46.1538C36.6829 46.1538 46.1538 36.6829 46.1538 25C46.1538 13.3171 36.6829 3.84615 25 3.84615C13.3171 3.84615 3.84615 13.3171 3.84615 25C3.84615 36.6829 13.3171 46.1538 25 46.1538ZM25 50C38.8071 50 50 38.8071 50 25C50 11.1929 38.8071 0 25 0C11.1929 0 0 11.1929 0 25C0 38.8071 11.1929 50 25 50Z" fill="white"/>
</svg>
