<svg width="49" height="49" viewBox="0 0 49 49" fill="none" xmlns="http://www.w3.org/2000/svg">
<path d="M18.0716 47C19.255 47 20.2144 45.9926 20.2144 44.75C20.2144 43.5074 19.255 42.5 18.0716 42.5C16.8881 42.5 15.9287 43.5074 15.9287 44.75C15.9287 45.9926 16.8881 47 18.0716 47Z" stroke="white" stroke-width="4" stroke-linecap="round" stroke-linejoin="round"/>
<path d="M40.5716 47C41.755 47 42.7144 45.9926 42.7144 44.75C42.7144 43.5074 41.755 42.5 40.5716 42.5C39.3881 42.5 38.4287 43.5074 38.4287 44.75C38.4287 45.9926 39.3881 47 40.5716 47Z" stroke="white" stroke-width="4" stroke-linecap="round" stroke-linejoin="round"/>
<path d="M2 2H10.1818L15.6636 31.1225C15.8507 32.1239 16.363 33.0234 17.1109 33.6635C17.8588 34.3037 18.7946 34.6438 19.7545 34.6242H39.6364C40.5963 34.6438 41.5321 34.3037 42.28 33.6635C43.0279 33.0234 43.5402 32.1239 43.7273 31.1225L47 12.8747H12.2273" stroke="white" stroke-width="4" stroke-linecap="round" stroke-linejoin="round"/>
</svg>
